PathFileType	4	(X/Y/Z)	/home/nbianco/projects/addbio/data/HamnerRunning2013/Processed/subject20//results/MarkerData/run300.trc
DataRate	CameraRate	NumFrames	NumMarkers	Units	OrigDataRate	OrigDataStartFrame	OrigNumFrames
120.005	120.005	10	42	m	120.005	211	242
Frame#	Time	C7			CLAV			LACR			LASI			LCAL			LFAradius			LFAsuperior			LFAulna			LLEL			LMEL			LMT5			LPSI			LTB1			LTB2			LTB3			LTH1			LTH2			LTH3			LTOE			LUA1			LUA2			LUA3			RACR			RASI			RCAL			RFAradius			RFAsuperior			RFAulna			RLEL			RMEL			RMT5			RPSI			RTB1			RTB2			RTB3			RTH1			RTH2			RTH3			RTOE			RUA1			RUA2			RUA3		
		X1	Y1	Z1	X2	Y2	Z2	X3	Y3	Z3	X4	Y4	Z4	X5	Y5	Z5	X6	Y6	Z6	X7	Y7	Z7	X8	Y8	Z8	X9	Y9	Z9	X10	Y10	Z10	X11	Y11	Z11	X12	Y12	Z12	X13	Y13	Z13	X14	Y14	Z14	X15	Y15	Z15	X16	Y16	Z16	X17	Y17	Z17	X18	Y18	Z18	X19	Y19	Z19	X20	Y20	Z20	X21	Y21	Z21	X22	Y22	Z22	X23	Y23	Z23	X24	Y24	Z24	X25	Y25	Z25	X26	Y26	Z26	X27	Y27	Z27	X28	Y28	Z28	X29	Y29	Z29	X30	Y30	Z30	X31	Y31	Z31	X32	Y32	Z32	X33	Y33	Z33	X34	Y34	Z34	X35	Y35	Z35	X36	Y36	Z36	X37	Y37	Z37	X38	Y38	Z38	X39	Y39	Z39	X40	Y40	Z40	X41	Y41	Z41	X42	Y42	Z42

212	1.925	0.721568	1.4793	-0.384589	0.852153	1.38463	-0.364276	0.73675	1.42107	-0.568143	0.774237	0.984537	-0.485404	0.673016	0.101579	-0.375548	0.818518	1.20111	-0.636035	0.679707	1.22344	-0.742264	0.822705	1.14826	-0.675937	0.607828	1.22453	-0.751147	0.566233	1.16789	-0.690717	0.863039	0.0609618	-0.453568	0.600329	0.994175	-0.395595	0.882676	0.374738	-0.408203	0.822149	0.27604	-0.455626	0.816134	0.198107	-0.376413	0.758475	0.843078	-0.528448	0.846384	0.751443	-0.509163	0.825763	0.602304	-0.500688	0.890217	0.0766382	-0.36571	0.691705	1.37231	-0.628263	0.617568	1.32244	-0.623869	0.657002	1.30436	-0.688652	0.774767	1.43379	-0.19449	0.775954	0.980868	-0.237973	0.318303	0.54784	-0.3131	0.845196	1.13574	-0.215056	0.758192	1.16328	-0.0743504	0.823749	1.07462	-0.193397	0.693124	1.18748	-0.0257187	0.617418	1.17334	-0.0744224	0.222787	0.400811	-0.203988	0.602509	0.996329	-0.308929	0.600053	0.41634	-0.255615	0.529465	0.459711	-0.211518	0.421916	0.437388	-0.282052	0.73855	0.792129	-0.19564	0.791887	0.673738	-0.208631	0.712219	0.553134	-0.19992	0.243155	0.343859	-0.28069	0.749023	1.33542	-0.121091	0.758114	1.26411	-0.116071	0.670444	1.27412	-0.0566989
213	1.93333	0.722256	1.47549	-0.386262	0.852746	1.37875	-0.362506	0.737851	1.4149	-0.569794	0.771691	0.980864	-0.486347	0.649082	0.102378	-0.37552	0.828568	1.19345	-0.637334	0.690476	1.21392	-0.743477	0.834513	1.14127	-0.678228	0.618703	1.21359	-0.753994	0.578604	1.15493	-0.695443	0.838366	0.0604628	-0.453835	0.597118	0.992257	-0.391736	0.86924	0.371412	-0.40941	0.805875	0.274091	-0.456459	0.796606	0.196659	-0.37712	0.753747	0.841091	-0.528798	0.839989	0.747618	-0.511033	0.818439	0.598656	-0.502116	0.865877	0.0749315	-0.366598	0.693668	1.36323	-0.629861	0.621798	1.30984	-0.626191	0.663187	1.29444	-0.690894	0.77245	1.42954	-0.194168	0.773534	0.974468	-0.237617	0.335956	0.551996	-0.308726	0.84053	1.12129	-0.209963	0.749138	1.15582	-0.0738758	0.815953	1.06123	-0.18713	0.683637	1.18395	-0.027699	0.609696	1.17027	-0.0781516	0.241497	0.403072	-0.201152	0.599447	0.993065	-0.305648	0.616644	0.415159	-0.255313	0.547163	0.458679	-0.209627	0.438727	0.438873	-0.279456	0.741225	0.788546	-0.19495	0.799471	0.672199	-0.207766	0.725567	0.549418	-0.198434	0.26032	0.347553	-0.27898	0.74407	1.33094	-0.121995	0.749892	1.25914	-0.118914	0.662637	1.27105	-0.0599857
214	1.94167	0.723029	1.47282	-0.387719	0.852571	1.37475	-0.360877	0.738824	1.40961	-0.571135	0.768849	0.978615	-0.486266	0.624448	0.102922	-0.375641	0.839357	1.1863	-0.637485	0.702064	1.20536	-0.743159	0.846847	1.13513	-0.679608	0.630436	1.20347	-0.755681	0.591604	1.14279	-0.699252	0.813271	0.0599935	-0.454291	0.59448	0.991728	-0.388788	0.853917	0.366518	-0.411039	0.787247	0.270443	-0.456876	0.775326	0.194081	-0.377519	0.749103	0.839288	-0.528783	0.832675	0.743719	-0.512241	0.807338	0.594353	-0.50279	0.840878	0.0735932	-0.367185	0.695598	1.35542	-0.630905	0.626865	1.29752	-0.626949	0.669469	1.28553	-0.692038	0.769665	1.42644	-0.193974	0.770829	0.970116	-0.236517	0.353307	0.55433	-0.303998	0.835651	1.10771	-0.204379	0.739924	1.14997	-0.0741682	0.807549	1.04903	-0.180759	0.674094	1.18152	-0.0302286	0.602001	1.16798	-0.0825672	0.261653	0.401904	-0.198768	0.597126	0.992166	-0.30296	0.634542	0.414672	-0.255881	0.565855	0.457504	-0.207857	0.456777	0.439406	-0.277311	0.743424	0.786129	-0.194255	0.807642	0.67184	-0.207285	0.739734	0.547361	-0.197077	0.279122	0.34863	-0.277787	0.738818	1.32789	-0.122818	0.741792	1.25586	-0.121667	0.654273	1.26903	-0.0640819
215	1.95	0.723439	1.47091	-0.388809	0.851838	1.37255	-0.359533	0.739985	1.40537	-0.572015	0.765881	0.977394	-0.485498	0.599296	0.103277	-0.375958	0.85068	1.18007	-0.636464	0.714066	1.19786	-0.741719	0.859489	1.13014	-0.679963	0.642604	1.19437	-0.756222	0.604878	1.13184	-0.701864	0.787834	0.0597206	-0.45482	0.592329	0.991789	-0.387322	0.836867	0.360496	-0.412717	0.766571	0.265981	-0.45706	0.752543	0.191036	-0.377659	0.74435	0.837723	-0.528787	0.824509	0.739596	-0.513105	0.793277	0.590001	-0.502846	0.815369	0.0729787	-0.367407	0.698027	1.34898	-0.631452	0.632997	1.28619	-0.626244	0.675852	1.27779	-0.692105	0.766511	1.42454	-0.19397	0.768217	0.96789	-0.234773	0.370049	0.554748	-0.299163	0.830429	1.09565	-0.198485	0.730738	1.14609	-0.0749896	0.798597	1.03869	-0.174445	0.664502	1.18041	-0.033098	0.59422	1.16677	-0.0875191	0.282936	0.397562	-0.196913	0.595456	0.992337	-0.301442	0.653546	0.414923	-0.25674	0.585218	0.456341	-0.206231	0.475767	0.439001	-0.275561	0.745359	0.784683	-0.193734	0.81634	0.672856	-0.207221	0.754524	0.54687	-0.195909	0.299245	0.347146	-0.277082	0.733128	1.32628	-0.12354	0.734141	1.25424	-0.123787	0.64543	1.26811	-0.0689125
216	1.95833	0.723294	1.46964	-0.38949	0.850944	1.37173	-0.35834	0.741652	1.40232	-0.572429	0.763093	0.976807	-0.484714	0.574038	0.103645	-0.376453	0.862201	1.17514	-0.63432	0.726016	1.19131	-0.739713	0.872205	1.12651	-0.679166	0.654668	1.18629	-0.755749	0.618195	1.12234	-0.702969	0.7623	0.0595866	-0.455372	0.590436	0.992171	-0.387339	0.818433	0.354528	-0.414256	0.74468	0.261933	-0.457268	0.729055	0.188369	-0.377849	0.739253	0.836567	-0.529076	0.815466	0.735378	-0.514028	0.777601	0.586406	-0.502634	0.789753	0.0728515	-0.367574	0.701378	1.34384	-0.631651	0.640078	1.2766	-0.624593	0.682349	1.27129	-0.691298	0.763171	1.42381	-0.194072	0.765891	0.967362	-0.232912	0.385943	0.553118	-0.294443	0.824748	1.08582	-0.192499	0.721498	1.14406	-0.0757884	0.789243	1.03083	-0.168414	0.654658	1.1807	-0.0360562	0.586245	1.1668	-0.0927578	0.305057	0.390366	-0.19557	0.59407	0.992602	-0.301276	0.673337	0.415975	-0.257288	0.60493	0.455421	-0.204879	0.495304	0.437704	-0.274077	0.747246	0.784175	-0.193467	0.825353	0.675513	-0.207577	0.769619	0.547999	-0.195024	0.320591	0.343144	-0.276893	0.726914	1.32606	-0.124168	0.726987	1.25411	-0.124902	0.636235	1.26832	-0.0742153
217	1.96667	0.722799	1.46918	-0.389858	0.850222	1.37187	-0.357023	0.743978	1.40052	-0.572494	0.76075	0.976672	-0.484576	0.548967	0.104196	-0.377011	0.87353	1.17185	-0.631132	0.737525	1.18563	-0.737516	0.88476	1.12439	-0.677121	0.66618	1.17921	-0.754431	0.631409	1.11449	-0.702347	0.736854	0.0594777	-0.455936	0.588629	0.99307	-0.388372	0.798996	0.349771	-0.415554	0.722389	0.259171	-0.457601	0.705541	0.186624	-0.378283	0.73366	0.835948	-0.529647	0.805621	0.731458	-0.515146	0.761645	0.584093	-0.502502	0.764347	0.0727571	-0.368047	0.705712	1.33998	-0.631618	0.64761	1.26928	-0.622668	0.688931	1.26604	-0.689882	0.7598	1.4242	-0.19412	0.763794	0.967963	-0.231672	0.400823	0.549288	-0.290038	0.818588	1.07892	-0.186538	0.711874	1.14346	-0.0759648	0.779738	1.02586	-0.162903	0.64426	1.18237	-0.0388905	0.578071	1.16817	-0.0980507	0.327787	0.380634	-0.194671	0.592627	0.992814	-0.3022	0.693482	0.417853	-0.257277	0.624678	0.454979	-0.203964	0.515006	0.43566	-0.272903	0.749293	0.78477	-0.193399	0.834419	0.680025	-0.208294	0.784648	0.550956	-0.194499	0.343254	0.336672	-0.277282	0.720245	1.32717	-0.124727	0.720118	1.25533	-0.124976	0.626842	1.26975	-0.0796275
218	1.975	0.722397	1.4698	-0.390059	0.849789	1.37282	-0.355367	0.746911	1.39996	-0.572355	0.758938	0.97702	-0.485499	0.524097	0.104962	-0.377494	0.884304	1.17039	-0.626977	0.748368	1.181	-0.735135	0.896901	1.12379	-0.673769	0.676927	1.17327	-0.752397	0.644339	1.10845	-0.700021	0.711527	0.059344	-0.456496	0.586946	0.994781	-0.389807	0.778796	0.346792	-0.416492	0.700079	0.257968	-0.457996	0.682199	0.185912	-0.378918	0.727552	0.835907	-0.530302	0.795269	0.728319	-0.516262	0.746271	0.583108	-0.502594	0.739207	0.0724338	-0.368932	0.710758	1.33742	-0.631362	0.654922	1.26446	-0.620961	0.69553	1.2621	-0.688057	0.756465	1.42565	-0.193989	0.761748	0.969367	-0.231568	0.414633	0.543124	-0.286133	0.812051	1.07546	-0.180583	0.701552	1.14398	-0.0752217	0.770399	1.02398	-0.158071	0.633126	1.18531	-0.0414826	0.569818	1.17095	-0.103266	0.351012	0.368689	-0.194126	0.591032	0.993521	-0.303692	0.713517	0.420504	-0.256906	0.644151	0.455159	-0.203572	0.534609	0.433047	-0.272261	0.751703	0.78674	-0.1934	0.843313	0.686425	-0.209264	0.799289	0.555953	-0.194355	0.367402	0.327866	-0.278225	0.713344	1.32957	-0.125233	0.713237	1.25784	-0.124302	0.617423	1.27248	-0.0848014
219	1.98333	0.722443	1.47162	-0.39019	0.849578	1.37468	-0.353314	0.750283	1.40063	-0.572081	0.757548	0.977914	-0.487507	0.499264	0.105923	-0.377826	0.894226	1.1708	-0.621924	0.758478	1.17779	-0.732298	0.908338	1.12466	-0.669057	0.686944	1.16875	-0.749728	0.656685	1.10434	-0.69631	0.686266	0.05921	-0.45701	0.585582	0.997404	-0.391158	0.757899	0.345509	-0.416934	0.677702	0.258146	-0.458324	0.658859	0.186077	-0.379578	0.721066	0.836419	-0.530799	0.784849	0.726294	-0.517002	0.731645	0.583175	-0.502777	0.714205	0.0719298	-0.37001	0.716143	1.33624	-0.630827	0.66152	1.26207	-0.619624	0.702106	1.25955	-0.685928	0.75314	1.42815	-0.193658	0.759697	0.97161	-0.232548	0.42749	0.534564	-0.282909	0.805333	1.07561	-0.174567	0.690559	1.14575	-0.0737464	0.761534	1.02515	-0.153936	0.621405	1.18943	-0.0438309	0.561668	1.17517	-0.108363	0.374778	0.3549	-0.193835	0.589469	0.995396	-0.305234	0.733086	0.423815	-0.256594	0.663067	0.455932	-0.20367	0.554038	0.429935	-0.272295	0.75464	0.790305	-0.193371	0.851868	0.694502	-0.210382	0.813328	0.563011	-0.194561	0.393125	0.317001	-0.279516	0.706471	1.33318	-0.125692	0.706167	1.26165	-0.123309	0.608161	1.27654	-0.0894898
220	1.99167	0.722992	1.47457	-0.390242	0.849455	1.37761	-0.350939	0.75393	1.40248	-0.571638	0.756379	0.979297	-0.490185	0.474361	0.107178	-0.378052	0.903078	1.17301	-0.616034	0.767902	1.17631	-0.728724	0.918752	1.12685	-0.662949	0.696406	1.16596	-0.746501	0.668048	1.10224	-0.691739	0.661034	0.0591265	-0.457419	0.584736	1.00079	-0.392183	0.7363	0.345523	-0.416818	0.655056	0.259382	-0.458459	0.635308	0.186946	-0.380101	0.71451	0.837446	-0.530979	0.774748	0.725411	-0.517049	0.71735	0.584028	-0.502725	0.689212	0.0714642	-0.370929	0.721644	1.33647	-0.629983	0.667315	1.26187	-0.618556	0.708711	1.25851	-0.683553	0.749756	1.43167	-0.193215	0.757832	0.974882	-0.234061	0.439698	0.523646	-0.280523	0.79866	1.07913	-0.168499	0.679356	1.14926	-0.0720759	0.753367	1.02914	-0.150368	0.609574	1.19476	-0.0460267	0.553775	1.18084	-0.113318	0.399268	0.339688	-0.193699	0.588278	0.998739	-0.306508	0.752041	0.427691	-0.256673	0.681227	0.457101	-0.204143	0.57337	0.426182	-0.272845	0.758168	0.795518	-0.193301	0.859951	0.703857	-0.211601	0.826632	0.57187	-0.195063	0.420365	0.304475	-0.280829	0.699804	1.3379	-0.126115	0.698947	1.26666	-0.122352	0.599237	1.28189	-0.0935828
221	2	0.723829	1.47844	-0.390141	0.849328	1.38168	-0.348353	0.757754	1.40552	-0.570945	0.755277	0.981005	-0.492866	0.449499	0.109042	-0.378344	0.910715	1.17683	-0.60937	0.776723	1.17666	-0.724361	0.927863	1.1302	-0.65548	0.705467	1.16508	-0.742853	0.678032	1.10209	-0.686854	0.635835	0.0591243	-0.457662	0.584494	1.00471	-0.392866	0.714066	0.346503	-0.416195	0.632047	0.261459	-0.458311	0.611532	0.188479	-0.380413	0.708318	0.838968	-0.530808	0.765164	0.725445	-0.516298	0.702763	0.585643	-0.502107	0.664229	0.0712388	-0.371454	0.727241	1.33813	-0.628876	0.672567	1.26359	-0.617612	0.715476	1.25902	-0.681009	0.746261	1.43614	-0.192809	0.756489	0.979235	-0.235475	0.451701	0.510506	-0.27909	0.792216	1.08545	-0.162491	0.668622	1.155	-0.0707494	0.745991	1.03555	-0.147159	0.598243	1.2014	-0.0481853	0.546206	1.18781	-0.118051	0.424725	0.323477	-0.193666	0.587765	1.00336	-0.307434	0.770411	0.432077	-0.257252	0.698566	0.45838	-0.204875	0.592713	0.421505	-0.273473	0.762204	0.80223	-0.193252	0.867446	0.71405	-0.21294	0.839095	0.582032	-0.195809	0.448943	0.290712	-0.281904	0.6934	1.34364	-0.126523	0.69178	1.27274	-0.121604	0.590807	1.28845	-0.0970965
